<svg class="main-svg" xmlns="http://www.w3.org/2000/svg" xmlns:xlink="http://www.w3.org/1999/xlink" width="1000" height="800" style="" viewBox="0 0 1000 800"><rect x="0" y="0" width="1000" height="800" style="fill: rgb(255, 255, 255); fill-opacity: 1;"/><defs id="defs-34ba59"><g class="clips"><clipPath id="clip34ba59polar-for-traces"><path d="M286.5,0A286.5,286.5 0,1,0 -286.5,-3.508613079557167e-14A286.5,286.5 0,1,0 286.5,7.017226159114334e-14Z" transform="translate(286.5,286.5)"/></clipPath></g><g class="gradients"/><g class="patterns"/></defs><g class="bglayer"/><g class="layer-below"><g class="imagelayer"/><g class="shapelayer"/></g><g class="cartesianlayer"/><g class="polarlayer"><g class="polar"><g class="polarsublayer draglayer"/><g class="polarsublayer plotbg"><path d="M286.5,0A286.5,286.5 0,1,0 -286.5,-3.508613079557167e-14A286.5,286.5 0,1,0 286.5,7.017226159114334e-14Z" transform="translate(500,386.5)" style="fill: rgb(229, 236, 246); fill-opacity: 1;"/></g><g class="polarsublayer backplot"><g class="maplayer"/></g><g class="polarsublayer angular-grid" style="fill: none;"><path class="angularaxisgrid" d="M500,386.5L786.5,386.5" style="stroke: rgb(255, 255, 255); stroke-opacity: 1; stroke-width: 1px;"/><path class="angularaxisgrid" d="M500,386.5L758.1275806540431,262.1923087428196" style="stroke: rgb(255, 255, 255); stroke-opacity: 1; stroke-width: 1px;"/><path class="angularaxisgrid" d="M500,386.5L678.6298282325272,162.50528027290946" style="stroke: rgb(255, 255, 255); stroke-opacity: 1; stroke-width: 1px;"/><path class="angularaxisgrid" d="M500,386.5L563.7522475784841,107.18315315990753" style="stroke: rgb(255, 255, 255); stroke-opacity: 1; stroke-width: 1px;"/><path class="angularaxisgrid" d="M500,386.5L436.24775242151594,107.18315315990753" style="stroke: rgb(255, 255, 255); stroke-opacity: 1; stroke-width: 1px;"/><path class="angularaxisgrid" d="M500,386.5L321.37017176747287,162.50528027290943" style="stroke: rgb(255, 255, 255); stroke-opacity: 1; stroke-width: 1px;"/><path class="angularaxisgrid" d="M500,386.5L241.87241934595693,262.1923087428196" style="stroke: rgb(255, 255, 255); stroke-opacity: 1; stroke-width: 1px;"/><path class="angularaxisgrid" d="M500,386.5L213.5,386.49999999999994" style="stroke: rgb(255, 255, 255); stroke-opacity: 1; stroke-width: 1px;"/><path class="angularaxisgrid" d="M500,386.5L241.87241934595693,510.80769125718035" style="stroke: rgb(255, 255, 255); stroke-opacity: 1; stroke-width: 1px;"/><path class="angularaxisgrid" d="M500,386.5L321.3701717674728,610.4947197270906" style="stroke: rgb(255, 255, 255); stroke-opacity: 1; stroke-width: 1px;"/><path class="angularaxisgrid" d="M500,386.5L436.2477524215159,665.8168468400925" style="stroke: rgb(255, 255, 255); stroke-opacity: 1; stroke-width: 1px;"/><path class="angularaxisgrid" d="M500,386.5L563.7522475784838,665.8168468400925" style="stroke: rgb(255, 255, 255); stroke-opacity: 1; stroke-width: 1px;"/><path class="angularaxisgrid" d="M500,386.5L678.6298282325271,610.4947197270906" style="stroke: rgb(255, 255, 255); stroke-opacity: 1; stroke-width: 1px;"/><path class="angularaxisgrid" d="M500,386.5L758.1275806540432,510.80769125718024" style="stroke: rgb(255, 255, 255); stroke-opacity: 1; stroke-width: 1px;"/></g><g class="polarsublayer radial-grid" transform="translate(500,386.5)" style="fill: none;"><path class="xgrid" d="M31.83,0A31.83,31.83 0,1,0 -31.83,-3.898050761686025e-15A31.83,31.83 0,1,0 31.83,7.79610152337205e-15Z" style="stroke: rgb(255, 255, 255); stroke-opacity: 1; stroke-width: 1px;"/><path class="xgrid" d="M63.67,0A63.67,63.67 0,1,0 -63.67,-7.797326170171198e-15A63.67,63.67 0,1,0 63.67,1.5594652340342395e-14Z" style="stroke: rgb(255, 255, 255); stroke-opacity: 1; stroke-width: 1px;"/><path class="xgrid" d="M95.5,0A95.5,95.5 0,1,0 -95.5,-1.1695376931857222e-14A95.5,95.5 0,1,0 95.5,2.3390753863714445e-14Z" style="stroke: rgb(255, 255, 255); stroke-opacity: 1; stroke-width: 1px;"/><path class="xgrid" d="M127.33,0A127.33,127.33 0,1,0 -127.33,-1.5593427693543247e-14A127.33,127.33 0,1,0 127.33,3.1186855387086494e-14Z" style="stroke: rgb(255, 255, 255); stroke-opacity: 1; stroke-width: 1px;"/><path class="xgrid" d="M159.17,0A159.17,159.17 0,1,0 -159.17,-1.949270310202842e-14A159.17,159.17 0,1,0 159.17,3.898540620405684e-14Z" style="stroke: rgb(255, 255, 255); stroke-opacity: 1; stroke-width: 1px;"/><path class="xgrid" d="M191,0A191,191 0,1,0 -191,-2.3390753863714445e-14A191,191 0,1,0 191,4.678150772742889e-14Z" style="stroke: rgb(255, 255, 255); stroke-opacity: 1; stroke-width: 1px;"/><path class="xgrid" d="M222.83,0A222.83,222.83 0,1,0 -222.83,-2.7288804625400473e-14A222.83,222.83 0,1,0 222.83,5.4577609250800945e-14Z" style="stroke: rgb(255, 255, 255); stroke-opacity: 1; stroke-width: 1px;"/><path class="xgrid" d="M254.67,0A254.67,254.67 0,1,0 -254.67,-3.118808003388564e-14A254.67,254.67 0,1,0 254.67,6.237616006777129e-14Z" style="stroke: rgb(255, 255, 255); stroke-opacity: 1; stroke-width: 1px;"/></g><g class="polarsublayer frontplot" transform="translate(213.5,100)"><g class="barlayer"/><g class="scatterlayer"><g class="trace scatter traceffce1c" style="stroke-miterlimit: 2; opacity: 1;"><g class="fills" clip-path="url(#clip34ba59polar-for-traces)"><g><path class="js-fill" d="M397.92,286.5L372.54,245.06L346.04,211.84L350.25,7.18L240.46,84.77L127.72,87.39L171.78,231.25L238.75,286.5L171.78,341.75L187.26,410.94L265.25,379.61L304.21,364.09L336.12,348.72L386.88,334.84L397.92,286.5Z" style="fill: rgb(240, 128, 128); fill-opacity: 0.5; stroke-width: 0;"/></g></g><g class="errorbars"/><g class="lines"><path class="js-line" d="M397.92,286.5L372.54,245.06L346.04,211.84L350.25,7.18L240.46,84.77L127.72,87.39L171.78,231.25L238.75,286.5L171.78,341.75L187.26,410.94L265.25,379.61L304.21,364.09L336.12,348.72L386.88,334.84L397.92,286.5" clip-path="url(#clip34ba59polar-for-traces)" style="vector-effect: non-scaling-stroke; fill: none; stroke: rgb(240, 128, 128); stroke-opacity: 1; stroke-width: 2px; opacity: 1;"/></g><g class="points"><path class="point" transform="translate(397.92,286.5)" d="M3,0A3,3 0 1,1 0,-3A3,3 0 0,1 3,0Z" style="opacity: 1; stroke-width: 0px; fill: rgb(240, 128, 128); fill-opacity: 1;"/><path class="point" transform="translate(372.54,245.06)" d="M3,0A3,3 0 1,1 0,-3A3,3 0 0,1 3,0Z" style="opacity: 1; stroke-width: 0px; fill: rgb(240, 128, 128); fill-opacity: 1;"/><path class="point" transform="translate(346.04,211.84)" d="M3,0A3,3 0 1,1 0,-3A3,3 0 0,1 3,0Z" style="opacity: 1; stroke-width: 0px; fill: rgb(240, 128, 128); fill-opacity: 1;"/><path class="point" transform="translate(350.25,7.18)" d="M3,0A3,3 0 1,1 0,-3A3,3 0 0,1 3,0Z" style="opacity: 1; stroke-width: 0px; fill: rgb(240, 128, 128); fill-opacity: 1;"/><path class="point" transform="translate(240.46,84.77)" d="M3,0A3,3 0 1,1 0,-3A3,3 0 0,1 3,0Z" style="opacity: 1; stroke-width: 0px; fill: rgb(240, 128, 128); fill-opacity: 1;"/><path class="point" transform="translate(127.72,87.39)" d="M3,0A3,3 0 1,1 0,-3A3,3 0 0,1 3,0Z" style="opacity: 1; stroke-width: 0px; fill: rgb(240, 128, 128); fill-opacity: 1;"/><path class="point" transform="translate(171.78,231.25)" d="M3,0A3,3 0 1,1 0,-3A3,3 0 0,1 3,0Z" style="opacity: 1; stroke-width: 0px; fill: rgb(240, 128, 128); fill-opacity: 1;"/><path class="point" transform="translate(238.75,286.5)" d="M3,0A3,3 0 1,1 0,-3A3,3 0 0,1 3,0Z" style="opacity: 1; stroke-width: 0px; fill: rgb(240, 128, 128); fill-opacity: 1;"/><path class="point" transform="translate(171.78,341.75)" d="M3,0A3,3 0 1,1 0,-3A3,3 0 0,1 3,0Z" style="opacity: 1; stroke-width: 0px; fill: rgb(240, 128, 128); fill-opacity: 1;"/><path class="point" transform="translate(187.26,410.94)" d="M3,0A3,3 0 1,1 0,-3A3,3 0 0,1 3,0Z" style="opacity: 1; stroke-width: 0px; fill: rgb(240, 128, 128); fill-opacity: 1;"/><path class="point" transform="translate(265.25,379.61)" d="M3,0A3,3 0 1,1 0,-3A3,3 0 0,1 3,0Z" style="opacity: 1; stroke-width: 0px; fill: rgb(240, 128, 128); fill-opacity: 1;"/><path class="point" transform="translate(304.21,364.09)" d="M3,0A3,3 0 1,1 0,-3A3,3 0 0,1 3,0Z" style="opacity: 1; stroke-width: 0px; fill: rgb(240, 128, 128); fill-opacity: 1;"/><path class="point" transform="translate(336.12,348.72)" d="M3,0A3,3 0 1,1 0,-3A3,3 0 0,1 3,0Z" style="opacity: 1; stroke-width: 0px; fill: rgb(240, 128, 128); fill-opacity: 1;"/><path class="point" transform="translate(386.88,334.84)" d="M3,0A3,3 0 1,1 0,-3A3,3 0 0,1 3,0Z" style="opacity: 1; stroke-width: 0px; fill: rgb(240, 128, 128); fill-opacity: 1;"/><path class="point" transform="translate(397.92,286.5)" d="M3,0A3,3 0 1,1 0,-3A3,3 0 0,1 3,0Z" style="opacity: 1; stroke-width: 0px; fill: rgb(240, 128, 128); fill-opacity: 1;"/></g><g class="text"/></g><g class="trace scatter tracebd75e3" style="stroke-miterlimit: 2; opacity: 1;"><g class="fills" clip-path="url(#clip34ba59polar-for-traces)"><g><path class="js-fill" d="M350.17,286.5L329.52,265.78L316.27,249.17L318.38,146.84L265.25,193.39L177.34,149.61L286.5,286.5L270.58,286.5L229.14,314.12L226.96,361.16L282.96,302.02L290.04,302.02L306.35,311.39L329.52,307.22L350.17,286.5Z" style="fill: rgb(255, 215, 0); fill-opacity: 0.5; stroke-width: 0;"/></g></g><g class="errorbars"/><g class="lines"><path class="js-line" d="M350.17,286.5L329.52,265.78L316.27,249.17L318.38,146.84L265.25,193.39L177.34,149.61L286.5,286.5L270.58,286.5L229.14,314.12L226.96,361.16L282.96,302.02L290.04,302.02L306.35,311.39L329.52,307.22L350.17,286.5" clip-path="url(#clip34ba59polar-for-traces)" style="vector-effect: non-scaling-stroke; fill: none; stroke: rgb(255, 215, 0); stroke-opacity: 1; stroke-width: 2px; opacity: 1;"/></g><g class="points"><path class="point" transform="translate(350.17,286.5)" d="M3,0A3,3 0 1,1 0,-3A3,3 0 0,1 3,0Z" style="opacity: 1; stroke-width: 0px; fill: rgb(255, 215, 0); fill-opacity: 1;"/><path class="point" transform="translate(329.52,265.78)" d="M3,0A3,3 0 1,1 0,-3A3,3 0 0,1 3,0Z" style="opacity: 1; stroke-width: 0px; fill: rgb(255, 215, 0); fill-opacity: 1;"/><path class="point" transform="translate(316.27,249.17)" d="M3,0A3,3 0 1,1 0,-3A3,3 0 0,1 3,0Z" style="opacity: 1; stroke-width: 0px; fill: rgb(255, 215, 0); fill-opacity: 1;"/><path class="point" transform="translate(318.38,146.84)" d="M3,0A3,3 0 1,1 0,-3A3,3 0 0,1 3,0Z" style="opacity: 1; stroke-width: 0px; fill: rgb(255, 215, 0); fill-opacity: 1;"/><path class="point" transform="translate(265.25,193.39)" d="M3,0A3,3 0 1,1 0,-3A3,3 0 0,1 3,0Z" style="opacity: 1; stroke-width: 0px; fill: rgb(255, 215, 0); fill-opacity: 1;"/><path class="point" transform="translate(177.34,149.61)" d="M3,0A3,3 0 1,1 0,-3A3,3 0 0,1 3,0Z" style="opacity: 1; stroke-width: 0px; fill: rgb(255, 215, 0); fill-opacity: 1;"/><path class="point" transform="translate(286.5,286.5)" d="M3,0A3,3 0 1,1 0,-3A3,3 0 0,1 3,0Z" style="opacity: 1; stroke-width: 0px; fill: rgb(255, 215, 0); fill-opacity: 1;"/><path class="point" transform="translate(270.58,286.5)" d="M3,0A3,3 0 1,1 0,-3A3,3 0 0,1 3,0Z" style="opacity: 1; stroke-width: 0px; fill: rgb(255, 215, 0); fill-opacity: 1;"/><path class="point" transform="translate(229.14,314.12)" d="M3,0A3,3 0 1,1 0,-3A3,3 0 0,1 3,0Z" style="opacity: 1; stroke-width: 0px; fill: rgb(255, 215, 0); fill-opacity: 1;"/><path class="point" transform="translate(226.96,361.16)" d="M3,0A3,3 0 1,1 0,-3A3,3 0 0,1 3,0Z" style="opacity: 1; stroke-width: 0px; fill: rgb(255, 215, 0); fill-opacity: 1;"/><path class="point" transform="translate(282.96,302.02)" d="M3,0A3,3 0 1,1 0,-3A3,3 0 0,1 3,0Z" style="opacity: 1; stroke-width: 0px; fill: rgb(255, 215, 0); fill-opacity: 1;"/><path class="point" transform="translate(290.04,302.02)" d="M3,0A3,3 0 1,1 0,-3A3,3 0 0,1 3,0Z" style="opacity: 1; stroke-width: 0px; fill: rgb(255, 215, 0); fill-opacity: 1;"/><path class="point" transform="translate(306.35,311.39)" d="M3,0A3,3 0 1,1 0,-3A3,3 0 0,1 3,0Z" style="opacity: 1; stroke-width: 0px; fill: rgb(255, 215, 0); fill-opacity: 1;"/><path class="point" transform="translate(329.52,307.22)" d="M3,0A3,3 0 1,1 0,-3A3,3 0 0,1 3,0Z" style="opacity: 1; stroke-width: 0px; fill: rgb(255, 215, 0); fill-opacity: 1;"/><path class="point" transform="translate(350.17,286.5)" d="M3,0A3,3 0 1,1 0,-3A3,3 0 0,1 3,0Z" style="opacity: 1; stroke-width: 0px; fill: rgb(255, 215, 0); fill-opacity: 1;"/></g><g class="text"/></g><g class="trace scatter tracee5d11c" style="stroke-miterlimit: 2; opacity: 1;"><g class="fills" clip-path="url(#clip34ba59polar-for-traces)"><g><path class="js-fill" d="M302.42,286.5L286.5,286.5L286.5,286.5L304.21,208.91L272.33,224.43L236.88,224.28L286.5,286.5L270.58,286.5L272.16,293.41L226.96,361.16L286.5,286.5L290.04,302.02L286.5,286.5L286.5,286.5L302.42,286.5Z" style="fill: rgb(46, 139, 87); fill-opacity: 0.5; stroke-width: 0;"/></g></g><g class="errorbars"/><g class="lines"><path class="js-line" d="M302.42,286.5L286.5,286.5L286.5,286.5L304.21,208.91L272.33,224.43L236.88,224.28L286.5,286.5L270.58,286.5L272.16,293.41L226.96,361.16L286.5,286.5L290.04,302.02L286.5,286.5L286.5,286.5L302.42,286.5" clip-path="url(#clip34ba59polar-for-traces)" style="vector-effect: non-scaling-stroke; fill: none; stroke: rgb(46, 139, 87); stroke-opacity: 1; stroke-width: 2px; opacity: 1;"/></g><g class="points"><path class="point" transform="translate(302.42,286.5)" d="M3,0A3,3 0 1,1 0,-3A3,3 0 0,1 3,0Z" style="opacity: 1; stroke-width: 0px; fill: rgb(46, 139, 87); fill-opacity: 1;"/><path class="point" transform="translate(286.5,286.5)" d="M3,0A3,3 0 1,1 0,-3A3,3 0 0,1 3,0Z" style="opacity: 1; stroke-width: 0px; fill: rgb(46, 139, 87); fill-opacity: 1;"/><path class="point" transform="translate(286.5,286.5)" d="M3,0A3,3 0 1,1 0,-3A3,3 0 0,1 3,0Z" style="opacity: 1; stroke-width: 0px; fill: rgb(46, 139, 87); fill-opacity: 1;"/><path class="point" transform="translate(304.21,208.91)" d="M3,0A3,3 0 1,1 0,-3A3,3 0 0,1 3,0Z" style="opacity: 1; stroke-width: 0px; fill: rgb(46, 139, 87); fill-opacity: 1;"/><path class="point" transform="translate(272.33,224.43)" d="M3,0A3,3 0 1,1 0,-3A3,3 0 0,1 3,0Z" style="opacity: 1; stroke-width: 0px; fill: rgb(46, 139, 87); fill-opacity: 1;"/><path class="point" transform="translate(236.88,224.28)" d="M3,0A3,3 0 1,1 0,-3A3,3 0 0,1 3,0Z" style="opacity: 1; stroke-width: 0px; fill: rgb(46, 139, 87); fill-opacity: 1;"/><path class="point" transform="translate(286.5,286.5)" d="M3,0A3,3 0 1,1 0,-3A3,3 0 0,1 3,0Z" style="opacity: 1; stroke-width: 0px; fill: rgb(46, 139, 87); fill-opacity: 1;"/><path class="point" transform="translate(270.58,286.5)" d="M3,0A3,3 0 1,1 0,-3A3,3 0 0,1 3,0Z" style="opacity: 1; stroke-width: 0px; fill: rgb(46, 139, 87); fill-opacity: 1;"/><path class="point" transform="translate(272.16,293.41)" d="M3,0A3,3 0 1,1 0,-3A3,3 0 0,1 3,0Z" style="opacity: 1; stroke-width: 0px; fill: rgb(46, 139, 87); fill-opacity: 1;"/><path class="point" transform="translate(226.96,361.16)" d="M3,0A3,3 0 1,1 0,-3A3,3 0 0,1 3,0Z" style="opacity: 1; stroke-width: 0px; fill: rgb(46, 139, 87); fill-opacity: 1;"/><path class="point" transform="translate(286.5,286.5)" d="M3,0A3,3 0 1,1 0,-3A3,3 0 0,1 3,0Z" style="opacity: 1; stroke-width: 0px; fill: rgb(46, 139, 87); fill-opacity: 1;"/><path class="point" transform="translate(290.04,302.02)" d="M3,0A3,3 0 1,1 0,-3A3,3 0 0,1 3,0Z" style="opacity: 1; stroke-width: 0px; fill: rgb(46, 139, 87); fill-opacity: 1;"/><path class="point" transform="translate(286.5,286.5)" d="M3,0A3,3 0 1,1 0,-3A3,3 0 0,1 3,0Z" style="opacity: 1; stroke-width: 0px; fill: rgb(46, 139, 87); fill-opacity: 1;"/><path class="point" transform="translate(286.5,286.5)" d="M3,0A3,3 0 1,1 0,-3A3,3 0 0,1 3,0Z" style="opacity: 1; stroke-width: 0px; fill: rgb(46, 139, 87); fill-opacity: 1;"/><path class="point" transform="translate(302.42,286.5)" d="M3,0A3,3 0 1,1 0,-3A3,3 0 0,1 3,0Z" style="opacity: 1; stroke-width: 0px; fill: rgb(46, 139, 87); fill-opacity: 1;"/></g><g class="text"/></g></g></g><g class="polarsublayer angular-line"><path d="M286.5,0A286.5,286.5 0,1,0 -286.5,-3.508613079557167e-14A286.5,286.5 0,1,0 286.5,7.017226159114334e-14Z" transform="translate(500,386.5)" stroke-width="1" style="fill: none; stroke: rgb(255, 255, 255); stroke-opacity: 1;"/></g><g class="polarsublayer radial-line"><line x1="0" y1="0" x2="286.5" y2="0" transform="translate(500,386.5)" stroke-width="1" style="fill: none; stroke: rgb(255, 255, 255); stroke-opacity: 1;"/></g><g class="polarsublayer angular-axis"><g class="angularaxistick"><text text-anchor="start" x="2.9000000000000004" y="4.199999999999999" transform="translate(786.5,386.5)" style="font-family: 'Open Sans', verdana, arial, sans-serif; font-size: 12px; fill: rgb(42, 63, 95); fill-opacity: 1; white-space: pre; opacity: 1;">Biocatalysis</text></g><g class="angularaxistick"><text text-anchor="start" x="2.612809716917016" y="1.4844854278671016" transform="translate(758.1275806540431,262.1923087428196)" style="font-family: 'Open Sans', verdana, arial, sans-serif; font-size: 12px; fill: rgb(42, 63, 95); fill-opacity: 1; white-space: pre; opacity: 1;">Heterogenous catalysis</text></g><g class="angularaxistick"><text text-anchor="start" x="1.8081204253903276" y="-1.5250496892738776" transform="translate(678.6298282325272,162.50528027290946)" style="font-family: 'Open Sans', verdana, arial, sans-serif; font-size: 12px; fill: rgb(42, 63, 95); fill-opacity: 1; white-space: pre; opacity: 1;">Homogenous catalysis</text></g><g class="angularaxistick"><text text-anchor="start" x="0.645310708473312" y="-4.232530011947145" transform="translate(563.7522475784841,107.18315315990753)" style="font-family: 'Open Sans', verdana, arial, sans-serif; font-size: 12px; fill: rgb(42, 63, 95); fill-opacity: 1; white-space: pre; opacity: 1;">Chemical Substance Modeling</text></g><g class="angularaxistick"><text text-anchor="end" x="-0.6453107084733116" y="-4.232530011947146" transform="translate(436.24775242151594,107.18315315990753)" style="font-family: 'Open Sans', verdana, arial, sans-serif; font-size: 12px; fill: rgb(42, 63, 95); fill-opacity: 1; white-space: pre; opacity: 1;">Material Modeling</text></g><g class="angularaxistick"><text text-anchor="end" x="-1.8081204253903274" y="-1.525049689273879" transform="translate(321.37017176747287,162.50528027290943)" style="font-family: 'Open Sans', verdana, arial, sans-serif; font-size: 12px; fill: rgb(42, 63, 95); fill-opacity: 1; white-space: pre; opacity: 1;">Process Modeling</text></g><g class="angularaxistick"><text text-anchor="end" x="-2.6128097169170155" y="1.4844854278671007" transform="translate(241.87241934595693,262.1923087428196)" style="font-family: 'Open Sans', verdana, arial, sans-serif; font-size: 12px; fill: rgb(42, 63, 95); fill-opacity: 1; white-space: pre; opacity: 1;">Synthesis Data</text></g><g class="angularaxistick"><text text-anchor="end" x="-2.9000000000000004" y="4.199999999999998" transform="translate(213.5,386.49999999999994)" style="font-family: 'Open Sans', verdana, arial, sans-serif; font-size: 12px; fill: rgb(42, 63, 95); fill-opacity: 1; white-space: pre; opacity: 1;">Operando Data</text></g><g class="angularaxistick"><text text-anchor="end" x="-2.612809716917016" y="10.248936958041774" transform="translate(241.87241934595693,510.80769125718035)" style="font-family: 'Open Sans', verdana, arial, sans-serif; font-size: 12px; fill: rgb(42, 63, 95); fill-opacity: 1; white-space: pre; opacity: 1;">Performance Data</text></g><g class="angularaxistick"><text text-anchor="end" x="-1.808120425390328" y="14.267946256580323" transform="translate(321.3701717674728,610.4947197270906)" style="font-family: 'Open Sans', verdana, arial, sans-serif; font-size: 12px; fill: rgb(42, 63, 95); fill-opacity: 1; white-space: pre; opacity: 1;">Characterisation Data</text></g><g class="angularaxistick"><text text-anchor="end" x="-0.6453107084733124" y="15.461013814125693" transform="translate(436.2477524215159,665.8168468400925)" style="font-family: 'Open Sans', verdana, arial, sans-serif; font-size: 12px; fill: rgb(42, 63, 95); fill-opacity: 1; white-space: pre; opacity: 1;">Heat, Transport and Kinetic Data</text></g><g class="angularaxistick"><text text-anchor="start" x="0.6453107084733087" y="15.46101381412569" transform="translate(563.7522475784838,665.8168468400925)" style="font-family: 'Open Sans', verdana, arial, sans-serif; font-size: 12px; fill: rgb(42, 63, 95); fill-opacity: 1; white-space: pre; opacity: 1;">Process Design, Energy and Cost Data</text></g><g class="angularaxistick"><text text-anchor="start" x="1.808120425390327" y="14.267946256580325" transform="translate(678.6298282325271,610.4947197270906)" style="font-family: 'Open Sans', verdana, arial, sans-serif; font-size: 12px; fill: rgb(42, 63, 95); fill-opacity: 1; white-space: pre; opacity: 1;">Electrocatalysis</text></g><g class="angularaxistick"><text text-anchor="start" x="2.6128097169170164" y="10.248936958041767" transform="translate(758.1275806540432,510.80769125718024)" style="font-family: 'Open Sans', verdana, arial, sans-serif; font-size: 12px; fill: rgb(42, 63, 95); fill-opacity: 1; white-space: pre; opacity: 1;">Photocatalysis</text></g></g><g class="polarsublayer radial-axis" transform="translate(500,386.5)"><g class="xtick"><text text-anchor="middle" x="0" y="14.9" transform="" style="font-family: 'Open Sans', verdana, arial, sans-serif; font-size: 12px; fill: rgb(42, 63, 95); fill-opacity: 1; white-space: pre; opacity: 1;">0</text></g><g class="xtick"><text text-anchor="middle" x="0" y="14.9" transform="translate(31.83,0)" style="font-family: 'Open Sans', verdana, arial, sans-serif; font-size: 12px; fill: rgb(42, 63, 95); fill-opacity: 1; white-space: pre; opacity: 1;">2</text></g><g class="xtick"><text text-anchor="middle" x="0" y="14.9" transform="translate(63.67,0)" style="font-family: 'Open Sans', verdana, arial, sans-serif; font-size: 12px; fill: rgb(42, 63, 95); fill-opacity: 1; white-space: pre; opacity: 1;">4</text></g><g class="xtick"><text text-anchor="middle" x="0" y="14.9" transform="translate(95.5,0)" style="font-family: 'Open Sans', verdana, arial, sans-serif; font-size: 12px; fill: rgb(42, 63, 95); fill-opacity: 1; white-space: pre; opacity: 1;">6</text></g><g class="xtick"><text text-anchor="middle" x="0" y="14.9" transform="translate(127.33,0)" style="font-family: 'Open Sans', verdana, arial, sans-serif; font-size: 12px; fill: rgb(42, 63, 95); fill-opacity: 1; white-space: pre; opacity: 1;">8</text></g><g class="xtick"><text text-anchor="middle" x="0" y="14.9" transform="translate(159.17,0)" style="font-family: 'Open Sans', verdana, arial, sans-serif; font-size: 12px; fill: rgb(42, 63, 95); fill-opacity: 1; white-space: pre; opacity: 1;">10</text></g><g class="xtick"><text text-anchor="middle" x="0" y="14.9" transform="translate(191,0)" style="font-family: 'Open Sans', verdana, arial, sans-serif; font-size: 12px; fill: rgb(42, 63, 95); fill-opacity: 1; white-space: pre; opacity: 1;">12</text></g><g class="xtick"><text text-anchor="middle" x="0" y="14.9" transform="translate(222.83,0)" style="font-family: 'Open Sans', verdana, arial, sans-serif; font-size: 12px; fill: rgb(42, 63, 95); fill-opacity: 1; white-space: pre; opacity: 1;">14</text></g><g class="xtick"><text text-anchor="middle" x="0" y="14.9" transform="translate(254.67,0)" style="font-family: 'Open Sans', verdana, arial, sans-serif; font-size: 12px; fill: rgb(42, 63, 95); fill-opacity: 1; white-space: pre; opacity: 1;">16</text></g><g class="xtick"><text text-anchor="middle" x="0" y="14.9" transform="translate(286.5,0)" style="font-family: 'Open Sans', verdana, arial, sans-serif; font-size: 12px; fill: rgb(42, 63, 95); fill-opacity: 1; white-space: pre; opacity: 1;">18</text></g></g></g></g><g class="smithlayer"/><g class="ternarylayer"/><g class="geolayer"/><g class="funnelarealayer"/><g class="pielayer"/><g class="iciclelayer"/><g class="treemaplayer"/><g class="sunburstlayer"/><g class="glimages"/><defs id="topdefs-34ba59"><g class="clips"/><clipPath id="legend34ba59"><rect width="145" height="67" x="0" y="0"/></clipPath></defs><g class="layer-above"><g class="imagelayer"/><g class="shapelayer"/></g><g class="infolayer"><g class="legend" pointer-events="all" transform="translate(427.5,720.6)"><rect class="bg" shape-rendering="crispEdges" width="145" height="67" x="0" y="0" style="stroke: rgb(68, 68, 68); stroke-opacity: 1; fill: rgb(255, 255, 255); fill-opacity: 1; stroke-width: 0px;"/><g class="scrollbox" transform="" clip-path="url(#legend34ba59)"><g class="groups"><g class="traces" transform="translate(0,14.5)" style="opacity: 1;"><text class="legendtext" text-anchor="start" x="40" y="4.680000000000001" style="font-family: 'Open Sans', verdana, arial, sans-serif; font-size: 12px; fill: rgb(42, 63, 95); fill-opacity: 1; white-space: pre;">related: broader</text><g class="layers" style="opacity: 1;"><g class="legendfill"><path class="js-fill" d="M5,0h30v6h-30z" style="stroke-width: 0; fill: rgb(240, 128, 128); fill-opacity: 0.5;"/></g><g class="legendlines"><path class="js-line" d="M5,0h30" style="fill: none; stroke: rgb(240, 128, 128); stroke-opacity: 1; stroke-width: 2px;"/></g><g class="legendsymbols"><g class="legendpoints"><path class="scatterpts" transform="translate(20,0)" d="M3,0A3,3 0 1,1 0,-3A3,3 0 0,1 3,0Z" style="opacity: 1; stroke-width: 0px; fill: rgb(240, 128, 128); fill-opacity: 1;"/></g></g></g><rect class="legendtoggle" x="0" y="-9.5" width="139.125" height="19" style="fill: rgb(0, 0, 0); fill-opacity: 0;"/></g><g class="traces" transform="translate(0,33.5)" style="opacity: 1;"><text class="legendtext" text-anchor="start" x="40" y="4.680000000000001" style="font-family: 'Open Sans', verdana, arial, sans-serif; font-size: 12px; fill: rgb(42, 63, 95); fill-opacity: 1; white-space: pre;">related: narrower</text><g class="layers" style="opacity: 1;"><g class="legendfill"><path class="js-fill" d="M5,0h30v6h-30z" style="stroke-width: 0; fill: rgb(255, 215, 0); fill-opacity: 0.5;"/></g><g class="legendlines"><path class="js-line" d="M5,0h30" style="fill: none; stroke: rgb(255, 215, 0); stroke-opacity: 1; stroke-width: 2px;"/></g><g class="legendsymbols"><g class="legendpoints"><path class="scatterpts" transform="translate(20,0)" d="M3,0A3,3 0 1,1 0,-3A3,3 0 0,1 3,0Z" style="opacity: 1; stroke-width: 0px; fill: rgb(255, 215, 0); fill-opacity: 1;"/></g></g></g><rect class="legendtoggle" x="0" y="-9.5" width="139.125" height="19" style="fill: rgb(0, 0, 0); fill-opacity: 0;"/></g><g class="traces" transform="translate(0,52.5)" style="opacity: 1;"><text class="legendtext" text-anchor="start" x="40" y="4.680000000000001" style="font-family: 'Open Sans', verdana, arial, sans-serif; font-size: 12px; fill: rgb(42, 63, 95); fill-opacity: 1; white-space: pre;">contained</text><g class="layers" style="opacity: 1;"><g class="legendfill"><path class="js-fill" d="M5,0h30v6h-30z" style="stroke-width: 0; fill: rgb(46, 139, 87); fill-opacity: 0.5;"/></g><g class="legendlines"><path class="js-line" d="M5,0h30" style="fill: none; stroke: rgb(46, 139, 87); stroke-opacity: 1; stroke-width: 2px;"/></g><g class="legendsymbols"><g class="legendpoints"><path class="scatterpts" transform="translate(20,0)" d="M3,0A3,3 0 1,1 0,-3A3,3 0 0,1 3,0Z" style="opacity: 1; stroke-width: 0px; fill: rgb(46, 139, 87); fill-opacity: 1;"/></g></g></g><rect class="legendtoggle" x="0" y="-9.5" width="139.125" height="19" style="fill: rgb(0, 0, 0); fill-opacity: 0;"/></g></g></g><rect class="scrollbar" rx="20" ry="3" width="0" height="0" x="0" y="0" style="fill: rgb(128, 139, 164); fill-opacity: 1;"/></g><g class="g-gtitle"/><g class="g-polartitle"/></g></svg>